<svg id="visual" viewBox="0 0 900 600" width="900" height="600" xmlns="http://www.w3.org/2000/svg" xmlns:xlink="http://www.w3.org/1999/xlink" version="1.1"><rect x="0" y="0" width="900" height="600" fill="#36383a"></rect><defs><linearGradient id="grad1_0" x1="33.3%" y1="0%" x2="100%" y2="100%"><stop offset="20%" stop-color="#fbae3c" stop-opacity="1"></stop><stop offset="80%" stop-color="#fbae3c" stop-opacity="1"></stop></linearGradient></defs><defs><linearGradient id="grad1_1" x1="33.3%" y1="0%" x2="100%" y2="100%"><stop offset="20%" stop-color="#fbae3c" stop-opacity="1"></stop><stop offset="80%" stop-color="#f9855f" stop-opacity="1"></stop></linearGradient></defs><defs><linearGradient id="grad1_2" x1="33.3%" y1="0%" x2="100%" y2="100%"><stop offset="20%" stop-color="#da6b7b" stop-opacity="1"></stop><stop offset="80%" stop-color="#f9855f" stop-opacity="1"></stop></linearGradient></defs><defs><linearGradient id="grad1_3" x1="33.3%" y1="0%" x2="100%" y2="100%"><stop offset="20%" stop-color="#da6b7b" stop-opacity="1"></stop><stop offset="80%" stop-color="#a76187" stop-opacity="1"></stop></linearGradient></defs><defs><linearGradient id="grad1_4" x1="33.3%" y1="0%" x2="100%" y2="100%"><stop offset="20%" stop-color="#70587d" stop-opacity="1"></stop><stop offset="80%" stop-color="#a76187" stop-opacity="1"></stop></linearGradient></defs><defs><linearGradient id="grad1_5" x1="33.3%" y1="0%" x2="100%" y2="100%"><stop offset="20%" stop-color="#70587d" stop-opacity="1"></stop><stop offset="80%" stop-color="#474b5f" stop-opacity="1"></stop></linearGradient></defs><defs><linearGradient id="grad1_6" x1="33.3%" y1="0%" x2="100%" y2="100%"><stop offset="20%" stop-color="#36383a" stop-opacity="1"></stop><stop offset="80%" stop-color="#474b5f" stop-opacity="1"></stop></linearGradient></defs><defs><linearGradient id="grad2_0" x1="0%" y1="0%" x2="66.7%" y2="100%"><stop offset="20%" stop-color="#fbae3c" stop-opacity="1"></stop><stop offset="80%" stop-color="#fbae3c" stop-opacity="1"></stop></linearGradient></defs><defs><linearGradient id="grad2_1" x1="0%" y1="0%" x2="66.7%" y2="100%"><stop offset="20%" stop-color="#f9855f" stop-opacity="1"></stop><stop offset="80%" stop-color="#fbae3c" stop-opacity="1"></stop></linearGradient></defs><defs><linearGradient id="grad2_2" x1="0%" y1="0%" x2="66.7%" y2="100%"><stop offset="20%" stop-color="#f9855f" stop-opacity="1"></stop><stop offset="80%" stop-color="#da6b7b" stop-opacity="1"></stop></linearGradient></defs><defs><linearGradient id="grad2_3" x1="0%" y1="0%" x2="66.7%" y2="100%"><stop offset="20%" stop-color="#a76187" stop-opacity="1"></stop><stop offset="80%" stop-color="#da6b7b" stop-opacity="1"></stop></linearGradient></defs><defs><linearGradient id="grad2_4" x1="0%" y1="0%" x2="66.7%" y2="100%"><stop offset="20%" stop-color="#a76187" stop-opacity="1"></stop><stop offset="80%" stop-color="#70587d" stop-opacity="1"></stop></linearGradient></defs><defs><linearGradient id="grad2_5" x1="0%" y1="0%" x2="66.7%" y2="100%"><stop offset="20%" stop-color="#474b5f" stop-opacity="1"></stop><stop offset="80%" stop-color="#70587d" stop-opacity="1"></stop></linearGradient></defs><defs><linearGradient id="grad2_6" x1="0%" y1="0%" x2="66.7%" y2="100%"><stop offset="20%" stop-color="#474b5f" stop-opacity="1"></stop><stop offset="80%" stop-color="#36383a" stop-opacity="1"></stop></linearGradient></defs><g transform="translate(900, 0)"><path d="M0 432.7C-83.2 425.7 -166.4 418.7 -216.3 374.7C-266.3 330.7 -283 249.6 -313.5 181C-344 112.4 -388.3 56.2 -432.7 0L0 0Z" fill="#3c424d"></path><path d="M0 370.9C-71.3 364.9 -142.6 358.9 -185.4 321.2C-228.2 283.4 -242.6 214 -268.7 155.1C-294.9 96.3 -332.9 48.2 -370.9 0L0 0Z" fill="#595270"></path><path d="M0 309C-59.4 304.1 -118.8 299.1 -154.5 267.6C-190.2 236.2 -202.1 178.3 -223.9 129.3C-245.7 80.3 -277.4 40.1 -309 0L0 0Z" fill="#8b5d85"></path><path d="M0 247.2C-47.5 243.3 -95.1 239.3 -123.6 214.1C-152.2 189 -161.7 142.6 -179.1 103.4C-196.6 64.2 -221.9 32.1 -247.2 0L0 0Z" fill="#c26584"></path><path d="M0 185.4C-35.7 182.4 -71.3 179.5 -92.7 160.6C-114.1 141.7 -121.3 107 -134.4 77.6C-147.4 48.2 -166.4 24.1 -185.4 0L0 0Z" fill="#ed766e"></path><path d="M0 123.6C-23.8 121.6 -47.5 119.6 -61.8 107.1C-76.1 94.5 -80.9 71.3 -89.6 51.7C-98.3 32.1 -111 16.1 -123.6 0L0 0Z" fill="#fe984d"></path><path d="M0 61.8C-11.9 60.8 -23.8 59.8 -30.9 53.5C-38 47.2 -40.4 35.7 -44.8 25.9C-49.1 16.1 -55.5 8 -61.8 0L0 0Z" fill="#fbae3c"></path></g><g transform="translate(0, 600)"><path d="M0 -432.7C81.9 -425 163.8 -417.3 216.3 -374.7C268.8 -332.1 291.9 -254.8 323 -186.5C354.2 -118.2 393.4 -59.1 432.7 0L0 0Z" fill="#3c424d"></path><path d="M0 -370.9C70.2 -364.2 140.4 -357.6 185.4 -321.2C230.4 -284.7 250.2 -218.4 276.9 -159.9C303.6 -101.4 337.2 -50.7 370.9 0L0 0Z" fill="#595270"></path><path d="M0 -309C58.5 -303.5 117 -298 154.5 -267.6C192 -237.2 208.5 -182 230.7 -133.2C253 -84.5 281 -42.2 309 0L0 0Z" fill="#8b5d85"></path><path d="M0 -247.2C46.8 -242.8 93.6 -238.4 123.6 -214.1C153.6 -189.8 166.8 -145.6 184.6 -106.6C202.4 -67.6 224.8 -33.8 247.2 0L0 0Z" fill="#c26584"></path><path d="M0 -185.4C35.1 -182.1 70.2 -178.8 92.7 -160.6C115.2 -142.3 125.1 -109.2 138.4 -79.9C151.8 -50.7 168.6 -25.3 185.4 0L0 0Z" fill="#ed766e"></path><path d="M0 -123.6C23.4 -121.4 46.8 -119.2 61.8 -107.1C76.8 -94.9 83.4 -72.8 92.3 -53.3C101.2 -33.8 112.4 -16.9 123.6 0L0 0Z" fill="#fe984d"></path><path d="M0 -61.8C11.7 -60.7 23.4 -59.6 30.9 -53.5C38.4 -47.4 41.7 -36.4 46.1 -26.6C50.6 -16.9 56.2 -8.4 61.8 0L0 0Z" fill="#fbae3c"></path></g></svg>